<svg width="227" height="67" viewBox="0 0 227 67" fill="none" xmlns="http://www.w3.org/2000/svg">
<g clip-path="url(#clip0_137_1133)">
<path d="M46.7324 46.4923C46.7324 47.4525 46.4123 48.1727 45.7721 48.8129C45.132 49.453 44.3317 49.7731 43.4515 49.7731C42.5713 49.7731 41.7711 49.453 41.1309 48.8129C40.4907 48.1727 40.1706 47.4525 40.1706 46.4923V29.7678C40.1706 27.9273 39.5305 26.3269 38.1701 24.9666C36.7297 23.6862 35.1293 23.0461 33.3688 23.0461C31.6084 23.0461 30.0079 23.6862 28.5676 24.9666C27.2072 26.3269 26.567 27.8473 26.567 29.7678V46.4923C26.567 47.4525 26.247 48.1727 25.6068 48.8129C24.9666 49.453 24.1664 49.7731 23.2862 49.7731C22.4059 49.7731 21.6057 49.453 20.9656 48.8129C20.3254 48.1727 20.0053 47.4525 20.0053 46.4923V29.7678C20.0053 28.0074 19.3651 26.4069 18.0848 24.9666C16.6444 23.6862 15.044 23.0461 13.2835 23.0461C11.5231 23.0461 9.92263 23.6862 8.48225 24.9666C7.12189 26.3269 6.48172 27.8473 6.48172 29.7678V46.4923C6.48172 47.4525 6.16163 48.1727 5.52146 48.8129C4.88129 49.453 4.08108 49.7731 3.20085 49.7731C2.40064 49.8531 1.60042 49.5331 0.960254 48.8129C0.320085 48.2527 0 47.4525 0 46.4923V29.7678C0 26.1669 1.28034 23.0461 3.92104 20.4054C6.56174 17.7647 9.68256 16.4843 13.3635 16.4843C17.4446 16.4843 20.8055 18.0047 23.3662 21.0455C26.0069 18.0047 29.2878 16.4843 33.3688 16.4843C37.0498 16.4843 40.1706 17.7647 42.8113 20.4054C45.452 23.0461 46.7324 26.1669 46.7324 29.7678C46.7324 29.9279 46.7324 30.0079 46.6524 30.0079C46.7324 30.0879 46.7324 30.1679 46.7324 30.328V46.4923Z" fill="#0D0711"/>
<path d="M86.8231 46.3322C86.8231 47.2925 86.503 48.0927 85.8629 48.7328C85.2227 49.373 84.4225 49.6931 83.4622 49.6931C82.8221 49.6931 82.1819 49.373 81.3817 48.7328C80.6615 48.0127 80.2614 47.2124 80.2614 46.3322C77.5407 48.5728 74.2598 49.6131 70.4188 49.6131C65.6975 49.6131 61.7765 48.0927 58.5756 44.9719C55.2948 41.851 53.6943 37.93 53.6943 33.2888C53.6943 28.6475 55.2948 24.6465 58.5756 21.4456C61.8565 18.1648 65.7775 16.5643 70.4188 16.5643C75.06 16.5643 78.981 18.1648 82.1019 21.4456C85.2227 24.6465 86.7431 28.6475 86.7431 33.2888V46.3322H86.8231ZM70.4988 43.1314C73.2995 43.1314 75.6201 42.1711 77.5407 40.2506C79.3811 38.4101 80.3414 36.0895 80.3414 33.2888C80.3414 30.488 79.3811 28.0074 77.5407 26.0869C75.6201 24.0863 73.2995 23.046 70.4988 23.046C67.698 23.046 65.2974 24.0863 63.2969 26.0869C61.2963 28.0874 60.2561 30.568 60.2561 33.2888C60.2561 36.0095 61.2963 38.3301 63.2969 40.2506C65.1374 42.1711 67.538 43.1314 70.4988 43.1314Z" fill="#0D0711"/>
<path d="M100.186 46.4122C100.186 47.2125 99.8664 48.0127 99.2262 48.7329C98.5861 49.373 97.7859 49.6931 96.9056 49.6931C95.9454 49.6931 95.2252 49.373 94.585 48.7329C93.9448 48.0927 93.6248 47.2925 93.6248 46.4122V33.1287C93.6248 28.5675 95.2252 24.5665 98.506 21.2856C101.707 18.0847 105.628 16.4043 110.269 16.4043C111.069 16.4043 111.87 16.7244 112.67 17.3646C113.31 18.0847 113.63 18.885 113.63 19.6852C113.63 20.4854 113.31 21.2856 112.67 22.0058C112.03 22.6459 111.229 22.966 110.269 22.966C107.468 22.966 105.148 23.9263 103.147 25.8468C101.147 27.8473 100.186 30.248 100.186 33.0487V46.4122Z" fill="#0D0711"/>
<path d="M149.48 63.1367C149.48 63.9369 149.16 64.7371 148.519 65.4573C147.799 66.0974 146.999 66.4175 146.119 66.4175C145.319 66.4175 144.518 66.0974 143.798 65.4573C143.158 64.7371 142.838 63.9369 142.838 63.1367V46.5723C139.877 48.8129 136.516 49.9332 132.755 49.9332C128.114 49.9332 124.193 48.3327 120.912 45.0519C117.711 41.851 116.031 37.85 116.031 33.2087C116.031 28.6475 117.631 24.7265 120.912 21.4456C124.193 18.1648 128.114 16.5643 132.755 16.5643C137.316 16.5643 141.237 18.1648 144.518 21.4456C147.799 24.7265 149.4 28.6475 149.4 33.2087V63.1367H149.48ZM142.918 33.2888C142.918 30.568 141.958 28.1674 140.037 26.0869C137.957 24.1663 135.556 23.2061 132.835 23.2061C130.034 23.2061 127.714 24.1663 125.713 26.1669C123.713 28.1674 122.753 30.488 122.753 33.2888C122.753 36.0895 123.713 38.4101 125.713 40.4106C127.634 42.4112 130.034 43.3714 132.835 43.3714C135.556 43.3714 137.957 42.4112 140.037 40.4907C141.958 38.4101 142.918 36.0095 142.918 33.2888Z" fill="#0D0711"/>
<path d="M156.521 3.28081C156.521 2.40057 156.842 1.60036 157.482 0.960193C158.122 0.320024 158.842 -6.10352e-05 159.802 -6.10352e-05C160.603 -6.10352e-05 161.403 0.320024 162.123 0.960193C162.763 1.68038 163.083 2.4806 163.083 3.28081V46.4922C163.083 47.4525 162.763 48.1727 162.123 48.8129C161.483 49.453 160.683 49.7731 159.802 49.7731C158.842 49.7731 158.122 49.453 157.482 48.8129C156.842 48.1727 156.521 47.4525 156.521 46.4922V3.28081Z" fill="#0D0711"/>
<path d="M175.966 36.3296C176.687 38.3301 177.887 40.0105 179.647 41.2109C181.488 42.4912 183.408 43.1314 185.569 43.1314C186.369 43.1314 186.849 43.1314 186.929 43.0513L187.49 42.9713L188.05 42.8913L188.45 42.8113L188.77 42.7313C190.13 42.4112 191.571 41.771 193.091 40.8908C193.811 40.4106 194.691 40.3306 195.572 40.7307C196.532 41.0508 197.172 41.691 197.492 42.4912C198.292 44.0916 197.732 45.612 195.892 46.8924C193.651 48.1727 191.731 49.0529 190.05 49.453L189.57 49.5331L189.01 49.6131L188.37 49.6931L187.65 49.7731L186.689 49.8531H185.729C181.168 49.8531 177.167 48.2527 173.886 44.9719C170.685 41.771 169.005 37.85 169.005 33.2087C169.005 28.5675 170.605 24.6465 173.886 21.3656C177.087 18.1648 181.088 16.4843 185.729 16.4843C190.21 16.4843 193.971 17.9247 197.092 20.7254C200.613 23.9263 202.373 28.0074 202.373 33.1287C202.373 33.9289 202.053 34.7291 201.413 35.4493C200.693 36.0895 199.893 36.4096 199.013 36.4096H175.966V36.3296ZM195.172 29.6878C194.531 27.4472 193.251 25.7668 191.331 24.5665C189.73 23.4462 187.73 22.886 185.569 22.886C183.408 22.886 181.488 23.5262 179.647 24.8065C177.887 26.0068 176.687 27.6873 175.966 29.6878H195.172Z" fill="#0D0711"/>
<path d="M213.417 41.2109C214.137 42.5712 215.257 43.2114 216.697 43.2114C217.658 43.2114 218.458 42.8913 219.098 42.2511C219.738 41.611 220.058 40.7307 220.058 39.7705C220.058 38.8102 219.738 38.01 219.098 37.3698C218.458 36.7297 217.658 36.4096 216.697 36.4096C213.977 36.4096 211.576 35.4493 209.656 33.5288C207.735 31.6883 206.775 29.2877 206.775 26.487C206.775 23.7662 207.735 21.3656 209.656 19.4451C211.576 17.5246 213.977 16.5643 216.697 16.5643C219.018 16.5643 221.099 17.2845 223.019 18.6449C224.86 20.0853 225.98 21.6857 226.3 23.5262C226.46 24.0863 226.3 24.8865 225.82 26.0869C225.34 26.807 224.7 27.2872 223.739 27.4472C221.819 27.8473 220.538 27.0471 219.818 24.9666C219.338 23.7662 218.298 23.2061 216.697 23.2061C215.737 23.2061 214.937 23.5262 214.297 24.1663C213.657 24.8065 213.337 25.6067 213.337 26.567C213.337 27.5272 213.657 28.3274 214.297 28.9676C214.937 29.6078 215.737 29.9279 216.697 29.9279C219.418 29.9279 221.819 30.8881 223.739 32.8086C225.66 34.7291 226.62 37.1298 226.62 39.8505C226.62 42.4912 225.66 44.8918 223.739 46.9724C221.819 48.8929 219.418 49.8531 216.697 49.8531C214.457 49.8531 212.376 49.1329 210.536 47.6926C208.775 46.3322 207.655 44.6518 206.935 42.6512C206.615 41.851 206.775 40.9708 207.335 40.1706C207.895 39.3704 208.615 38.8902 209.496 38.7302C211.096 38.2501 212.376 39.1303 213.417 41.2109Z" fill="#0D0711"/>
</g>
<defs>
<clipPath id="clip0_137_1133">
<rect width="226.7" height="66.3376" fill="white"/>
</clipPath>
</defs>
</svg>
